<svg width="31" height="31" viewBox="0 0 31 31" fill="none" xmlns="http://www.w3.org/2000/svg">
<path d="M26.4064 8.22806H25.6448V7.37856H25.8206C25.9293 7.37856 26.0336 7.33535 26.1106 7.25844C26.1875 7.18153 26.2307 7.07722 26.2307 6.96845C26.2307 6.85969 26.1875 6.75538 26.1106 6.67847C26.0336 6.60156 25.9293 6.55835 25.8206 6.55835H21.7195C21.6108 6.55835 21.5064 6.60156 21.4295 6.67847C21.3526 6.75538 21.3094 6.85969 21.3094 6.96845C21.3094 7.07722 21.3526 7.18153 21.4295 7.25844C21.5064 7.33535 21.6108 7.37856 21.7195 7.37856H21.8953V8.22806H9.88506V7.37856H10.0608C10.1696 7.37856 10.2739 7.33535 10.3508 7.25844C10.4277 7.18153 10.4709 7.07722 10.4709 6.96845C10.4709 6.85969 10.4277 6.75538 10.3508 6.67847C10.2739 6.60156 10.1696 6.55835 10.0608 6.55835H5.95976C5.851 6.55835 5.74669 6.60156 5.66978 6.67847C5.59287 6.75538 5.54966 6.85969 5.54966 6.96845C5.54966 7.07722 5.59287 7.18153 5.66978 7.25844C5.74669 7.33535 5.851 7.37856 5.95976 7.37856H6.13552V8.22806H5.3739C5.10984 8.22836 4.85668 8.33339 4.66997 8.5201C4.48325 8.70682 4.37822 8.95998 4.37793 9.22403V23.8121C4.37822 24.0761 4.48325 24.3293 4.66997 24.516C4.85668 24.7027 5.10984 24.8077 5.3739 24.808H26.4064C26.6705 24.8077 26.9237 24.7027 27.1104 24.516C27.2971 24.3293 27.4021 24.0761 27.4024 23.8121V9.22403C27.4021 8.95998 27.2971 8.70682 27.1104 8.5201C26.9237 8.33339 26.6705 8.22836 26.4064 8.22806ZM22.7155 7.37856H24.8246V8.22806H22.7155V7.37856ZM6.95573 7.37856H9.06485V8.22806H6.95573V7.37856ZM26.5822 23.8121C26.5822 23.8587 26.5637 23.9034 26.5307 23.9363C26.4978 23.9693 26.4531 23.9878 26.4064 23.9878H5.3739C5.32729 23.9878 5.28258 23.9693 5.24962 23.9363C5.21666 23.9034 5.19814 23.8587 5.19814 23.8121V9.22403C5.19814 9.17742 5.21666 9.13271 5.24962 9.09975C5.28258 9.06679 5.32729 9.04827 5.3739 9.04827H26.4064C26.4531 9.04827 26.4978 9.06679 26.5307 9.09975C26.5637 9.13271 26.5822 9.17742 26.5822 9.22403V23.8121Z" fill="#0635C9"/>
<path d="M18.5013 13.439C18.4408 13.387 18.3665 13.3537 18.2874 13.3433C18.2083 13.3329 18.1279 13.3458 18.056 13.3804L16.4533 14.1503L17.454 10.8822C17.4728 10.8209 17.477 10.756 17.4662 10.6928C17.4554 10.6296 17.4299 10.5698 17.3917 10.5182C17.3536 10.4666 17.3039 10.4247 17.2467 10.3958C17.1894 10.3669 17.1261 10.3518 17.062 10.3518H14.7185C14.6212 10.3518 14.527 10.3865 14.4528 10.4495C14.3787 10.5126 14.3294 10.6 14.3138 10.6961L13.142 17.9023C13.1299 17.9768 13.1386 18.0532 13.1672 18.1231C13.1957 18.193 13.243 18.2536 13.3038 18.2984C13.3647 18.3431 13.4366 18.3702 13.5119 18.3766C13.5871 18.3831 13.6626 18.3686 13.7302 18.3349L15.4802 17.4599V21.3661C15.4802 21.4642 15.5154 21.5592 15.5795 21.6336C15.6435 21.708 15.7322 21.7569 15.8293 21.7715C15.9264 21.7861 16.0255 21.7654 16.1086 21.7132C16.1917 21.6609 16.2533 21.5805 16.2822 21.4867L18.6257 13.8704C18.6491 13.7942 18.6499 13.7128 18.6278 13.6362C18.6057 13.5595 18.5617 13.491 18.5013 13.439ZM16.3004 18.6387V16.7963C16.3004 16.7264 16.2825 16.6577 16.2484 16.5966C16.2144 16.5356 16.1653 16.4842 16.1059 16.4475C16.0464 16.4107 15.9785 16.3898 15.9087 16.3866C15.8389 16.3835 15.7694 16.3983 15.7069 16.4295L14.0802 17.2428L15.0674 11.172H16.5075L15.395 14.805C15.3717 14.8812 15.3711 14.9626 15.3932 15.0391C15.4154 15.1157 15.4594 15.1841 15.5198 15.2361C15.5803 15.288 15.6545 15.3212 15.7335 15.3317C15.8125 15.3421 15.8929 15.3292 15.9647 15.2947L17.5658 14.5256L16.3004 18.6387Z" fill="#1AE5BE"/>
</svg>
