<svg width="31" height="31" viewBox="0 0 31 31" fill="none" xmlns="http://www.w3.org/2000/svg">
<path d="M5.92351 7.35701L2.16406 11.1165L2.71898 11.6714L6.47842 7.91192L5.92351 7.35701Z" fill="#D4E1F4"/>
<path d="M24.1936 7.3572L23.6387 7.91211L27.3981 11.6716L27.953 11.1166L24.1936 7.3572Z" fill="#D4E1F4"/>
<path d="M7.73085 15.0776L7.65961 14.5666L7.72593 14.5003L11.881 18.6554L12.461 18.0754L8.306 13.9203L8.72735 13.4989L12.8824 17.654L13.4624 17.074L9.30741 12.9189L9.38768 12.8386L9.9705 12.8733C10.0284 12.8769 10.0864 12.8682 10.1407 12.8475C10.1949 12.8269 10.2441 12.7949 10.285 12.7537L11.0925 11.9463C11.1306 11.9082 11.1608 11.863 11.1815 11.8132C11.2021 11.7634 11.2127 11.7101 11.2127 11.6562C11.2127 11.6024 11.2021 11.5491 11.1815 11.4993C11.1608 11.4495 11.1306 11.4043 11.0925 11.3662L7.34887 7.62257L7.34834 7.62198L7.3477 7.62146L6.21346 6.48693C6.13651 6.4101 6.03221 6.36694 5.92346 6.36694C5.81472 6.36694 5.71041 6.4101 5.63346 6.48693L1.29396 10.8263C1.25587 10.8643 1.22566 10.9095 1.20505 10.9593C1.18444 11.0091 1.17383 11.0624 1.17383 11.1163C1.17383 11.1701 1.18444 11.2234 1.20505 11.2732C1.22566 11.323 1.25587 11.3682 1.29396 11.4063L6.17321 16.2856C6.2113 16.3237 6.25651 16.3539 6.30627 16.3745C6.35603 16.3951 6.40936 16.4057 6.46322 16.4057C6.51708 16.4057 6.57041 16.3951 6.62017 16.3745C6.66993 16.3539 6.71514 16.3237 6.75322 16.2856L7.61444 15.4244C7.65936 15.3795 7.69325 15.3248 7.71345 15.2647C7.73365 15.2045 7.73961 15.1405 7.73085 15.0776ZM5.9234 7.35694L6.47833 7.91181L2.7189 11.6713L2.16397 11.1164L5.9234 7.35694ZM6.81907 14.4777L6.89031 14.9886L6.46322 15.4157L3.29891 12.2513L7.05834 8.49188L10.2227 11.6562L9.83534 12.0436L9.25252 12.0089C9.19463 12.0053 9.13665 12.0141 9.08242 12.0347C9.0282 12.0553 8.97898 12.0872 8.93803 12.1282L6.93525 14.1311C6.89039 14.1759 6.85655 14.2306 6.83639 14.2907C6.81623 14.3509 6.81031 14.4149 6.81907 14.4777Z" fill="#1AE5BE"/>
<path d="M24.4841 6.48683C24.4461 6.44874 24.4009 6.41853 24.3511 6.39792C24.3013 6.37731 24.248 6.3667 24.1941 6.3667C24.1403 6.3667 24.087 6.37731 24.0372 6.39792C23.9874 6.41853 23.9422 6.44874 23.9041 6.48683L22.7698 7.62147L22.7691 7.622L22.7686 7.62259L19.0249 11.3663C18.9869 11.4043 18.9566 11.4496 18.936 11.4993C18.9154 11.5491 18.9048 11.6024 18.9048 11.6563C18.9048 11.7101 18.9154 11.7635 18.936 11.8132C18.9566 11.863 18.9869 11.9082 19.0249 11.9463L19.8862 12.8075C19.931 12.8523 19.9857 12.8862 20.0458 12.9063C20.106 12.9265 20.17 12.9324 20.2328 12.9236L20.7438 12.8524L20.81 12.9187L16.6551 17.0738C16.5548 17.1738 16.419 17.2299 16.2774 17.2299C16.1358 17.2299 16 17.1738 15.8998 17.0738L15.3127 16.4865C15.1259 16.2998 14.8726 16.1948 14.6084 16.1948C14.3443 16.1948 14.091 16.2998 13.9042 16.4865L10.6027 19.7879C10.4163 19.9748 10.3115 20.2281 10.3115 20.4922C10.3115 20.7562 10.4163 21.0095 10.6027 21.1964L14.1136 24.7073C14.2061 24.7998 14.3159 24.8732 14.4368 24.9232C14.5576 24.9733 14.6871 24.9991 14.8179 24.9991C14.9487 24.9991 15.0782 24.9733 15.1991 24.9232C15.3199 24.8732 15.4297 24.7998 15.5222 24.7073L18.8235 21.406C19.0103 21.2192 19.1152 20.9659 19.1152 20.7017C19.1152 20.4376 19.0103 20.1843 18.8235 19.9975L18.2364 19.4103C18.1364 19.3101 18.0802 19.1743 18.0802 19.0327C18.0802 18.8911 18.1364 18.7553 18.2364 18.6551L22.3914 14.5001L22.4718 14.5804L22.437 15.1632C22.4335 15.2211 22.4424 15.279 22.4629 15.3332C22.4835 15.3874 22.5154 15.4366 22.5564 15.4776L23.3642 16.2854C23.4022 16.3235 23.4474 16.3537 23.4972 16.3743C23.547 16.3949 23.6003 16.4055 23.6542 16.4055C23.708 16.4055 23.7613 16.3949 23.8111 16.3743C23.8609 16.3537 23.9061 16.3235 23.9442 16.2854L28.8236 11.4062C28.8617 11.3681 28.8919 11.3229 28.9125 11.2731C28.9331 11.2233 28.9437 11.17 28.9437 11.1162C28.9437 11.0623 28.9331 11.009 28.9125 10.9592C28.8919 10.9094 28.8617 10.8642 28.8236 10.8262L24.4841 6.48683ZM17.6565 18.0752C17.403 18.3294 17.2605 18.6738 17.2605 19.0328C17.2605 19.3918 17.403 19.7362 17.6565 19.9904L18.2436 20.5776C18.2766 20.6106 18.2951 20.6553 18.2951 20.7019C18.2951 20.7485 18.2766 20.7931 18.2436 20.8261L14.9424 24.1274C14.9094 24.1604 14.8647 24.1789 14.8181 24.1789C14.7715 24.1789 14.7268 24.1604 14.6938 24.1274L11.1829 20.6166C11.1666 20.6003 11.1536 20.5809 11.1448 20.5596C11.136 20.5382 11.1314 20.5154 11.1314 20.4923C11.1314 20.4692 11.136 20.4464 11.1448 20.425C11.1536 20.4037 11.1666 20.3843 11.1829 20.368L14.4846 17.0667C14.5175 17.0337 14.5622 17.0152 14.6088 17.0152C14.6554 17.0152 14.7001 17.0337 14.7331 17.0667L15.3202 17.6539C15.5744 17.9075 15.9188 18.0499 16.2778 18.0499C16.6369 18.0499 16.9812 17.9075 17.2354 17.6539L21.3905 13.4988L21.8119 13.9202L17.6565 18.0752ZM23.6543 15.4154L23.2669 15.0279L23.3016 14.4452C23.3051 14.3873 23.2963 14.3293 23.2757 14.2751C23.2551 14.2209 23.2233 14.1717 23.1823 14.1307L21.1795 12.1279C21.1347 12.083 21.08 12.0492 21.0199 12.029C20.9597 12.0089 20.8957 12.003 20.8329 12.0118L20.3219 12.083L19.8948 11.6559L23.0592 8.49154L26.8186 12.251L23.6543 15.4154ZM27.3986 11.671L23.6392 7.91148L24.1941 7.35661L27.9536 11.116L27.3986 11.671Z" fill="#0635C9"/>
<path d="M22.4661 12.8447C22.7202 13.0982 23.0646 13.2406 23.4237 13.2406C23.7827 13.2406 24.1271 13.0982 24.3812 12.8447C24.5706 12.6553 24.6996 12.4139 24.7519 12.1512C24.8041 11.8885 24.7773 11.6162 24.6748 11.3688C24.5723 11.1213 24.3987 10.9098 24.176 10.761C23.9533 10.6121 23.6915 10.5327 23.4236 10.5327C23.1558 10.5327 22.8939 10.6121 22.6712 10.761C22.4485 10.9098 22.2749 11.1213 22.1724 11.3688C22.0699 11.6162 22.0431 11.8885 22.0954 12.1512C22.1476 12.4139 22.2766 12.6553 22.466 12.8447H22.4661ZM23.0461 11.5094C23.1208 11.4347 23.2159 11.3839 23.3195 11.3633C23.4231 11.3427 23.5305 11.3532 23.6281 11.3937C23.7256 11.4341 23.809 11.5025 23.8677 11.5903C23.9264 11.6782 23.9577 11.7814 23.9577 11.887C23.9577 11.9926 23.9264 12.0959 23.8677 12.1837C23.809 12.2715 23.7256 12.34 23.6281 12.3804C23.5305 12.4208 23.4231 12.4314 23.3195 12.4108C23.2159 12.3902 23.1208 12.3393 23.0461 12.2646C22.9963 12.2152 22.9567 12.1564 22.9297 12.0916C22.9027 12.0268 22.8888 11.9573 22.8888 11.8871C22.8888 11.8168 22.9027 11.7473 22.9296 11.6825C22.9566 11.6177 22.9962 11.5589 23.046 11.5094H23.0461Z" fill="#0635C9"/>
<path d="M13.7211 19.3527C13.4999 19.5739 13.3492 19.8558 13.2882 20.1626C13.2272 20.4694 13.2585 20.7875 13.3782 21.0765C13.498 21.3656 13.7007 21.6126 13.9608 21.7864C14.221 21.9602 14.5268 22.053 14.8396 22.053C15.1525 22.053 15.4583 21.9602 15.7185 21.7864C15.9786 21.6126 16.1813 21.3656 16.3011 21.0765C16.4208 20.7875 16.4521 20.4694 16.3911 20.1626C16.3301 19.8558 16.1794 19.5739 15.9582 19.3527C15.6613 19.0565 15.259 18.8901 14.8396 18.8901C14.4203 18.8901 14.018 19.0565 13.7211 19.3527ZM15.3781 21.0097C15.2717 21.1161 15.136 21.1886 14.9884 21.2179C14.8407 21.2472 14.6877 21.2321 14.5486 21.1745C14.4095 21.1168 14.2907 21.0193 14.2071 20.8941C14.1234 20.7689 14.0788 20.6217 14.0788 20.4712C14.0788 20.3207 14.1234 20.1735 14.2071 20.0483C14.2907 19.9232 14.4095 19.8256 14.5486 19.7679C14.6877 19.7103 14.8407 19.6952 14.9884 19.7245C15.136 19.7538 15.2717 19.8263 15.3781 19.9327C15.5208 20.0756 15.6009 20.2693 15.6009 20.4712C15.6009 20.6731 15.5208 20.8668 15.3781 21.0097Z" fill="#0635C9"/>
<path d="M7.65144 10.9297C7.4621 10.7406 7.22095 10.6119 6.95848 10.5598C6.69601 10.5077 6.42399 10.5346 6.17681 10.6371C5.92962 10.7396 5.71837 10.9131 5.56975 11.1356C5.42112 11.3581 5.3418 11.6197 5.3418 11.8873C5.3418 12.1549 5.42112 12.4165 5.56975 12.639C5.71837 12.8615 5.92962 13.0349 6.17681 13.1374C6.42399 13.2399 6.69601 13.2668 6.95848 13.2148C7.22095 13.1627 7.4621 13.034 7.65144 12.8449C7.90497 12.5907 8.04733 12.2463 8.04732 11.8873C8.04731 11.5282 7.90492 11.1839 7.65138 10.9297H7.65144ZM7.07143 12.2649C6.99677 12.3395 6.90166 12.3903 6.79812 12.4109C6.69459 12.4314 6.58729 12.4208 6.48978 12.3804C6.39227 12.34 6.30893 12.2716 6.25029 12.1838C6.19166 12.096 6.16036 11.9929 6.16036 11.8873C6.16036 11.7818 6.19166 11.6786 6.25029 11.5908C6.30893 11.503 6.39227 11.4346 6.48978 11.3942C6.58729 11.3538 6.69459 11.3432 6.79812 11.3638C6.90166 11.3843 6.99677 11.4351 7.07143 11.5097C7.17141 11.61 7.22756 11.7457 7.22757 11.8873C7.22758 12.0289 7.17145 12.1647 7.07149 12.2649H7.07143Z" fill="#1AE5BE"/>
</svg>
